<svg height="512" viewBox="0 0 64 64" width="512" xmlns="http://www.w3.org/2000/svg">
    <defs>
        <style type="text/css"><![CDATA[
            .red-0 { fill: #f29b99; }
            .red-1 { fill: #e1656e; }
            .red-2 { fill: #d23f34; }

            .yellow-0 { fill: #f9d266; }
            .yellow-1 { fill: #d5883e; }
            .yellow-2 { fill: #fce797; }
            .yellow-3 { fill: #f0ae42; }
            .yellow-4 { fill: #f3a748; }
        ]]></style>
    </defs>
    <path d="m62 42a9 9 0 0 0 -9-9c-.02 0-.039 0-.058 0a8.992 8.992 0 0 0 -12.553-7.244 8.99 8.99 0 0 0 -16.778 0 8.992 8.992 0 0 0 -12.553 7.244c-.019 0-.038 0-.058 0a9 9 0 0 0 -1.964 17.779c-.02.238-.036.477-.036.721a8.495 8.495 0 0 0 14.956 5.52 8.987 8.987 0 0 0 16.088 0 8.495 8.495 0 0 0 14.956-5.52c0-.244-.016-.483-.036-.721a9 9 0 0 0 7.036-8.779z" class="red-0"/>
    <path d="m46 16a14 14 0 1 0 -25.312 8.24 16.313 16.313 0 0 1 3.312 9.599v.161h16v-.164a16.09 16.09 0 0 1 3.271-9.54 13.915 13.915 0 0 0 2.729-8.296z" class="yellow-0"/>
    <path d="m21.059 43h-2a8.009 8.009 0 0 0 -8-8v-2a10.011 10.011 0 0 1 10 10z" class="red-1"/>
    <path d="m54.963 50.777a10.011 10.011 0 0 1 -10-10h2a8.009 8.009 0 0 0 8 8z" class="red-1"/>
    <path d="m25.957 57.018h-2a9.011 9.011 0 0 1 9-9v2a7.008 7.008 0 0 0 -7 7z" class="red-1"/>
    <path d="m24 34v2a2 2 0 0 0 2 2h12a2 2 0 0 0 2-2v-2" class="yellow-1"/>
    <path d="m28 38a4 4 0 0 0 4 4 4 4 0 0 0 4-4" class="yellow-2"/>
    <path d="m43 16h-2a9.011 9.011 0 0 0 -9-9v-2a11.013 11.013 0 0 1 11 11z" class="yellow-2"/>
    <path d="m35 10-7 12h4l-2 8 8-12h-4z" class="yellow-3"/>
    <path d="m54 25c-.021 0-.041 0-.062 0a1 1 0 0 1 -.918-.8l-1.493-7.464-1.67 2.783a1 1 0 0 1 -.857.481h-8v-2h7.434l2.709-4.515a1 1 0 0 1 1.837.319l1.262 6.307 1.809-5.427a1 1 0 0 1 .878-.684 1.016 1.016 0 0 1 .966.551l1.723 3.449h2.382v2h-3a1 1 0 0 1 -.9-.553l-.92-1.841-2.236 6.71a1 1 0 0 1 -.944.684z" class="red-2"/>
    <path d="m10 25a1 1 0 0 1 -.949-.684l-2.236-6.71-.915 1.841a1 1 0 0 1 -.9.553h-3v-2h2.382l1.723-3.447a1.02 1.02 0 0 1 .966-.553 1 1 0 0 1 .878.682l1.809 5.427 1.262-6.309a1 1 0 0 1 1.837-.319l2.709 4.519h7.434v2h-8a1 1 0 0 1 -.857-.485l-1.67-2.783-1.493 7.468a1 1 0 0 1 -.918.8c-.021 0-.041 0-.062 0z" class="red-2"/>
    <path d="m38 34h-14v2h12a2 2 0 0 0 2-2z" class="yellow-4"/>
</svg>